<mxfile host="app.diagrams.net" agent="Mozilla/5.0 (Macintosh; Intel Mac OS X 10_15_7) AppleWebKit/537.36 (KHTML, like Gecko) Chrome/131.0.0.0 Safari/537.36" version="24.9.0">
  <diagram name="Page-1" id="UZ2FkjzimjhiqPQjV4-7">
    <mxGraphModel dx="4919" dy="3049" grid="1" gridSize="10" guides="1" tooltips="1" connect="1" arrows="1" fold="1" page="1" pageScale="1" pageWidth="827" pageHeight="1169" math="0" shadow="0">
      <root>
        <mxCell id="0" />
        <mxCell id="1" parent="0" />
        <mxCell id="i2BVjJreL_Xb-3278pKQ-51" value="" style="rounded=1;whiteSpace=wrap;html=1;fillColor=none;dashed=1;" vertex="1" parent="1">
          <mxGeometry x="-300" y="280" width="240" height="160" as="geometry" />
        </mxCell>
        <mxCell id="i2BVjJreL_Xb-3278pKQ-38" value="" style="rounded=1;whiteSpace=wrap;html=1;fillColor=none;dashed=1;" vertex="1" parent="1">
          <mxGeometry x="-660" y="280" width="240" height="160" as="geometry" />
        </mxCell>
        <mxCell id="i2BVjJreL_Xb-3278pKQ-55" value="" style="rounded=1;whiteSpace=wrap;html=1;fillColor=none;dashed=1;" vertex="1" parent="1">
          <mxGeometry x="-300" y="840" width="240" height="160" as="geometry" />
        </mxCell>
        <mxCell id="i2BVjJreL_Xb-3278pKQ-56" value="" style="rounded=1;whiteSpace=wrap;html=1;fillColor=none;dashed=1;" vertex="1" parent="1">
          <mxGeometry x="-580" y="840" width="240" height="160" as="geometry" />
        </mxCell>
        <mxCell id="i2BVjJreL_Xb-3278pKQ-47" style="edgeStyle=orthogonalEdgeStyle;rounded=0;orthogonalLoop=1;jettySize=auto;html=1;entryX=0.25;entryY=0;entryDx=0;entryDy=0;" edge="1" parent="1" source="R6cSBWT4vYsl6B0eMvr9-43" target="i2BVjJreL_Xb-3278pKQ-41">
          <mxGeometry relative="1" as="geometry">
            <Array as="points">
              <mxPoint x="-720" y="200" />
              <mxPoint x="-570" y="200" />
            </Array>
          </mxGeometry>
        </mxCell>
        <mxCell id="R6cSBWT4vYsl6B0eMvr9-43" value="" style="rounded=1;whiteSpace=wrap;html=1;fillColor=none;dashed=1;" parent="1" vertex="1">
          <mxGeometry x="-969.5" y="30" width="499" height="130" as="geometry" />
        </mxCell>
        <mxCell id="R6cSBWT4vYsl6B0eMvr9-40" value="" style="rounded=1;whiteSpace=wrap;html=1;fillColor=none;dashed=1;" parent="1" vertex="1">
          <mxGeometry x="-1380" y="1770" width="440" height="130" as="geometry" />
        </mxCell>
        <mxCell id="R4wL9bozNFMSgIH_ZImQ-1" value="AEC Studio Authorization Service" style="rounded=1;whiteSpace=wrap;html=1;fillColor=#dae8fc;strokeColor=#6c8ebf;" parent="1" vertex="1">
          <mxGeometry x="1155" y="310" width="120" height="70" as="geometry" />
        </mxCell>
        <mxCell id="R4wL9bozNFMSgIH_ZImQ-2" value="" style="edgeStyle=orthogonalEdgeStyle;rounded=0;orthogonalLoop=1;jettySize=auto;html=1;" parent="1" source="R4wL9bozNFMSgIH_ZImQ-3" target="R4wL9bozNFMSgIH_ZImQ-8" edge="1">
          <mxGeometry relative="1" as="geometry">
            <Array as="points">
              <mxPoint x="870" y="340" />
              <mxPoint x="870" y="340" />
            </Array>
          </mxGeometry>
        </mxCell>
        <mxCell id="R4wL9bozNFMSgIH_ZImQ-3" value="AEC Studio UI" style="rounded=1;whiteSpace=wrap;html=1;fillColor=#d5e8d4;strokeColor=#82b366;" parent="1" vertex="1">
          <mxGeometry x="800" y="20" width="120" height="70" as="geometry" />
        </mxCell>
        <mxCell id="R4wL9bozNFMSgIH_ZImQ-4" style="edgeStyle=orthogonalEdgeStyle;rounded=0;orthogonalLoop=1;jettySize=auto;html=1;" parent="1" source="R4wL9bozNFMSgIH_ZImQ-8" target="R4wL9bozNFMSgIH_ZImQ-24" edge="1">
          <mxGeometry relative="1" as="geometry" />
        </mxCell>
        <mxCell id="R4wL9bozNFMSgIH_ZImQ-5" style="edgeStyle=orthogonalEdgeStyle;rounded=0;orthogonalLoop=1;jettySize=auto;html=1;entryX=0;entryY=0.5;entryDx=0;entryDy=0;" parent="1" source="R4wL9bozNFMSgIH_ZImQ-8" target="R4wL9bozNFMSgIH_ZImQ-14" edge="1">
          <mxGeometry relative="1" as="geometry" />
        </mxCell>
        <mxCell id="R4wL9bozNFMSgIH_ZImQ-6" style="edgeStyle=orthogonalEdgeStyle;rounded=0;orthogonalLoop=1;jettySize=auto;html=1;exitX=0.75;exitY=0;exitDx=0;exitDy=0;entryX=0;entryY=0.5;entryDx=0;entryDy=0;" parent="1" source="R4wL9bozNFMSgIH_ZImQ-8" target="R4wL9bozNFMSgIH_ZImQ-1" edge="1">
          <mxGeometry relative="1" as="geometry" />
        </mxCell>
        <mxCell id="R4wL9bozNFMSgIH_ZImQ-7" style="edgeStyle=orthogonalEdgeStyle;rounded=0;orthogonalLoop=1;jettySize=auto;html=1;exitX=1;exitY=0.25;exitDx=0;exitDy=0;" parent="1" edge="1">
          <mxGeometry relative="1" as="geometry">
            <mxPoint x="1855" y="640" as="targetPoint" />
            <mxPoint x="980" y="420.43" as="sourcePoint" />
            <Array as="points">
              <mxPoint x="1385" y="420" />
              <mxPoint x="1385" y="510" />
              <mxPoint x="1750" y="510" />
              <mxPoint x="1750" y="640" />
            </Array>
          </mxGeometry>
        </mxCell>
        <mxCell id="R4wL9bozNFMSgIH_ZImQ-8" value="AEC Studio Service" style="rounded=1;whiteSpace=wrap;html=1;fillColor=#dae8fc;strokeColor=#6c8ebf;" parent="1" vertex="1">
          <mxGeometry x="860" y="410" width="120" height="70" as="geometry" />
        </mxCell>
        <mxCell id="R4wL9bozNFMSgIH_ZImQ-9" style="edgeStyle=orthogonalEdgeStyle;rounded=0;orthogonalLoop=1;jettySize=auto;html=1;exitX=1;exitY=0.25;exitDx=0;exitDy=0;entryX=1;entryY=0.75;entryDx=0;entryDy=0;" parent="1" source="R4wL9bozNFMSgIH_ZImQ-11" target="R4wL9bozNFMSgIH_ZImQ-11" edge="1">
          <mxGeometry relative="1" as="geometry">
            <mxPoint x="1090" y="80" as="targetPoint" />
            <Array as="points">
              <mxPoint x="1110" y="37" />
              <mxPoint x="1110" y="73" />
            </Array>
          </mxGeometry>
        </mxCell>
        <mxCell id="R4wL9bozNFMSgIH_ZImQ-10" style="edgeStyle=orthogonalEdgeStyle;rounded=0;orthogonalLoop=1;jettySize=auto;html=1;exitX=0.5;exitY=1;exitDx=0;exitDy=0;entryX=0.5;entryY=0;entryDx=0;entryDy=0;" parent="1" source="R4wL9bozNFMSgIH_ZImQ-11" target="R4wL9bozNFMSgIH_ZImQ-8" edge="1">
          <mxGeometry relative="1" as="geometry" />
        </mxCell>
        <mxCell id="R4wL9bozNFMSgIH_ZImQ-11" value="Portal Applications&lt;div&gt;OEM, DR&lt;/div&gt;" style="rounded=1;whiteSpace=wrap;html=1;fillColor=#d5e8d4;strokeColor=#82b366;" parent="1" vertex="1">
          <mxGeometry x="960" y="20" width="120" height="70" as="geometry" />
        </mxCell>
        <mxCell id="R4wL9bozNFMSgIH_ZImQ-12" value="Validate Tokens and generate claims" style="text;html=1;align=center;verticalAlign=middle;whiteSpace=wrap;rounded=0;" parent="1" vertex="1">
          <mxGeometry x="1010" y="360" width="130" height="30" as="geometry" />
        </mxCell>
        <mxCell id="R4wL9bozNFMSgIH_ZImQ-13" style="edgeStyle=orthogonalEdgeStyle;rounded=0;orthogonalLoop=1;jettySize=auto;html=1;exitX=1;exitY=0.5;exitDx=0;exitDy=0;" parent="1" source="R4wL9bozNFMSgIH_ZImQ-14" edge="1">
          <mxGeometry relative="1" as="geometry">
            <mxPoint x="1855" y="670" as="targetPoint" />
            <Array as="points">
              <mxPoint x="1733" y="595" />
              <mxPoint x="1733" y="670" />
              <mxPoint x="1855" y="670" />
            </Array>
          </mxGeometry>
        </mxCell>
        <mxCell id="R4wL9bozNFMSgIH_ZImQ-14" value="AEC Audit Service" style="rounded=1;whiteSpace=wrap;html=1;fillColor=#dae8fc;strokeColor=#6c8ebf;" parent="1" vertex="1">
          <mxGeometry x="1490" y="560" width="120" height="70" as="geometry" />
        </mxCell>
        <mxCell id="R4wL9bozNFMSgIH_ZImQ-15" value="Store/Retrieve Configs" style="text;html=1;align=center;verticalAlign=middle;resizable=0;points=[];autosize=1;strokeColor=none;fillColor=none;" parent="1" vertex="1">
          <mxGeometry x="1480" y="480" width="140" height="30" as="geometry" />
        </mxCell>
        <mxCell id="R4wL9bozNFMSgIH_ZImQ-16" value="2. Return Requested resources" style="text;html=1;align=center;verticalAlign=middle;whiteSpace=wrap;rounded=0;" parent="1" vertex="1">
          <mxGeometry x="1025" y="140" width="130" height="30" as="geometry" />
        </mxCell>
        <mxCell id="R4wL9bozNFMSgIH_ZImQ-17" value="1. Request resoures with JWT" style="text;html=1;align=center;verticalAlign=middle;whiteSpace=wrap;rounded=0;" parent="1" vertex="1">
          <mxGeometry x="925" y="260" width="110" height="41" as="geometry" />
        </mxCell>
        <mxCell id="R4wL9bozNFMSgIH_ZImQ-18" value="Audit Config Store Details and Versioning" style="text;html=1;align=center;verticalAlign=middle;whiteSpace=wrap;rounded=0;" parent="1" vertex="1">
          <mxGeometry x="1360" y="555" width="90" height="30" as="geometry" />
        </mxCell>
        <mxCell id="R4wL9bozNFMSgIH_ZImQ-19" value="Pre Authenticated Requests to Save/Update and Publish Configs" style="text;html=1;align=center;verticalAlign=middle;whiteSpace=wrap;rounded=0;" parent="1" vertex="1">
          <mxGeometry x="710" y="140" width="150" height="60" as="geometry" />
        </mxCell>
        <mxCell id="R4wL9bozNFMSgIH_ZImQ-20" value="" style="image;sketch=0;aspect=fixed;html=1;points=[];align=center;fontSize=12;image=img/lib/mscae/Cache_Redis_Product.svg;" parent="1" vertex="1">
          <mxGeometry x="1860" y="370" width="60" height="50.4" as="geometry" />
        </mxCell>
        <mxCell id="R4wL9bozNFMSgIH_ZImQ-21" style="edgeStyle=orthogonalEdgeStyle;rounded=0;orthogonalLoop=1;jettySize=auto;html=1;exitX=1;exitY=0.25;exitDx=0;exitDy=0;entryX=0;entryY=0.25;entryDx=0;entryDy=0;" parent="1" source="R4wL9bozNFMSgIH_ZImQ-24" target="R4wL9bozNFMSgIH_ZImQ-38" edge="1">
          <mxGeometry relative="1" as="geometry" />
        </mxCell>
        <mxCell id="R4wL9bozNFMSgIH_ZImQ-22" style="edgeStyle=orthogonalEdgeStyle;rounded=0;orthogonalLoop=1;jettySize=auto;html=1;exitX=0.75;exitY=1;exitDx=0;exitDy=0;" parent="1" source="R4wL9bozNFMSgIH_ZImQ-24" edge="1">
          <mxGeometry relative="1" as="geometry">
            <mxPoint x="1550" y="630" as="targetPoint" />
            <Array as="points">
              <mxPoint x="950" y="910" />
              <mxPoint x="1551" y="910" />
              <mxPoint x="1551" y="630" />
            </Array>
          </mxGeometry>
        </mxCell>
        <mxCell id="R4wL9bozNFMSgIH_ZImQ-23" style="edgeStyle=orthogonalEdgeStyle;rounded=0;orthogonalLoop=1;jettySize=auto;html=1;exitX=0.5;exitY=1;exitDx=0;exitDy=0;entryX=0;entryY=0.5;entryDx=0;entryDy=0;" parent="1" source="R4wL9bozNFMSgIH_ZImQ-24" target="R4wL9bozNFMSgIH_ZImQ-41" edge="1">
          <mxGeometry relative="1" as="geometry" />
        </mxCell>
        <mxCell id="R4wL9bozNFMSgIH_ZImQ-24" value="AEC Orchestrator Service&amp;nbsp;" style="rounded=1;whiteSpace=wrap;html=1;fillColor=#dae8fc;strokeColor=#6c8ebf;" parent="1" vertex="1">
          <mxGeometry x="860" y="790" width="120" height="70" as="geometry" />
        </mxCell>
        <mxCell id="R4wL9bozNFMSgIH_ZImQ-25" value="Trigger Publish" style="text;html=1;align=center;verticalAlign=middle;whiteSpace=wrap;rounded=0;" parent="1" vertex="1">
          <mxGeometry x="784" y="710" width="136" height="50" as="geometry" />
        </mxCell>
        <mxCell id="R4wL9bozNFMSgIH_ZImQ-26" value="Schedule Cron" style="text;html=1;align=center;verticalAlign=middle;whiteSpace=wrap;rounded=0;" parent="1" vertex="1">
          <mxGeometry x="1010" y="770" width="110" height="30" as="geometry" />
        </mxCell>
        <mxCell id="R4wL9bozNFMSgIH_ZImQ-27" value="Trigger Scheduled Publish" style="text;html=1;align=center;verticalAlign=middle;whiteSpace=wrap;rounded=0;" parent="1" vertex="1">
          <mxGeometry x="995" y="850" width="140" height="30" as="geometry" />
        </mxCell>
        <mxCell id="R4wL9bozNFMSgIH_ZImQ-28" value="Register Webhook &amp;amp; Retry Config" style="text;html=1;align=center;verticalAlign=middle;whiteSpace=wrap;rounded=0;" parent="1" vertex="1">
          <mxGeometry x="1230" y="1090" width="110" height="30" as="geometry" />
        </mxCell>
        <mxCell id="R4wL9bozNFMSgIH_ZImQ-29" value="1. Fetch Registered Consumers Configs" style="text;html=1;align=center;verticalAlign=middle;whiteSpace=wrap;rounded=0;" parent="1" vertex="1">
          <mxGeometry x="1000" y="960" width="130" height="30" as="geometry" />
        </mxCell>
        <mxCell id="R4wL9bozNFMSgIH_ZImQ-30" value="1. Notify Config Changes via Webhook" style="text;html=1;align=center;verticalAlign=middle;whiteSpace=wrap;rounded=0;" parent="1" vertex="1">
          <mxGeometry x="910" y="1055" width="160" height="30" as="geometry" />
        </mxCell>
        <mxCell id="R4wL9bozNFMSgIH_ZImQ-31" value="2. Consumption Acknowledgment via Webhook" style="text;html=1;align=center;verticalAlign=middle;whiteSpace=wrap;rounded=0;" parent="1" vertex="1">
          <mxGeometry x="705" y="1050" width="190" height="40" as="geometry" />
        </mxCell>
        <mxCell id="R4wL9bozNFMSgIH_ZImQ-32" value="Generate JWT with roles" style="text;html=1;align=center;verticalAlign=middle;whiteSpace=wrap;rounded=0;" parent="1" vertex="1">
          <mxGeometry x="1115" y="50" width="115" height="30" as="geometry" />
        </mxCell>
        <mxCell id="R4wL9bozNFMSgIH_ZImQ-33" style="edgeStyle=orthogonalEdgeStyle;rounded=0;orthogonalLoop=1;jettySize=auto;html=1;exitX=0.25;exitY=1;exitDx=0;exitDy=0;entryX=0.25;entryY=0;entryDx=0;entryDy=0;" parent="1" source="R4wL9bozNFMSgIH_ZImQ-35" target="R4wL9bozNFMSgIH_ZImQ-38" edge="1">
          <mxGeometry relative="1" as="geometry" />
        </mxCell>
        <mxCell id="R4wL9bozNFMSgIH_ZImQ-34" style="edgeStyle=orthogonalEdgeStyle;rounded=0;orthogonalLoop=1;jettySize=auto;html=1;exitX=0.5;exitY=0;exitDx=0;exitDy=0;entryX=1;entryY=0.75;entryDx=0;entryDy=0;" parent="1" source="R4wL9bozNFMSgIH_ZImQ-35" target="R4wL9bozNFMSgIH_ZImQ-8" edge="1">
          <mxGeometry relative="1" as="geometry" />
        </mxCell>
        <mxCell id="R4wL9bozNFMSgIH_ZImQ-35" value="AEC Jobs Service" style="rounded=1;whiteSpace=wrap;html=1;fillColor=#dae8fc;strokeColor=#6c8ebf;" parent="1" vertex="1">
          <mxGeometry x="1155" y="620" width="120" height="70" as="geometry" />
        </mxCell>
        <mxCell id="R4wL9bozNFMSgIH_ZImQ-36" style="edgeStyle=orthogonalEdgeStyle;rounded=0;orthogonalLoop=1;jettySize=auto;html=1;exitX=0.75;exitY=0;exitDx=0;exitDy=0;" parent="1" source="R4wL9bozNFMSgIH_ZImQ-38" edge="1">
          <mxGeometry relative="1" as="geometry">
            <mxPoint x="1244.5" y="690" as="targetPoint" />
          </mxGeometry>
        </mxCell>
        <mxCell id="R4wL9bozNFMSgIH_ZImQ-37" style="edgeStyle=orthogonalEdgeStyle;rounded=0;orthogonalLoop=1;jettySize=auto;html=1;exitX=0;exitY=0.75;exitDx=0;exitDy=0;" parent="1" source="R4wL9bozNFMSgIH_ZImQ-38" edge="1">
          <mxGeometry relative="1" as="geometry">
            <mxPoint x="980" y="842.5714285714289" as="targetPoint" />
          </mxGeometry>
        </mxCell>
        <mxCell id="R4wL9bozNFMSgIH_ZImQ-38" value="Scheduler Service" style="rounded=1;whiteSpace=wrap;html=1;fillColor=#dae8fc;strokeColor=#6c8ebf;" parent="1" vertex="1">
          <mxGeometry x="1155" y="790" width="120" height="70" as="geometry" />
        </mxCell>
        <mxCell id="R4wL9bozNFMSgIH_ZImQ-39" style="edgeStyle=orthogonalEdgeStyle;rounded=0;orthogonalLoop=1;jettySize=auto;html=1;exitX=0;exitY=0.5;exitDx=0;exitDy=0;entryX=0.5;entryY=1;entryDx=0;entryDy=0;" parent="1" source="R4wL9bozNFMSgIH_ZImQ-41" target="R4wL9bozNFMSgIH_ZImQ-24" edge="1">
          <mxGeometry relative="1" as="geometry" />
        </mxCell>
        <mxCell id="R4wL9bozNFMSgIH_ZImQ-40" style="edgeStyle=orthogonalEdgeStyle;rounded=0;orthogonalLoop=1;jettySize=auto;html=1;exitX=1;exitY=0.5;exitDx=0;exitDy=0;" parent="1" source="R4wL9bozNFMSgIH_ZImQ-41" edge="1">
          <mxGeometry relative="1" as="geometry">
            <mxPoint x="1890" y="690" as="targetPoint" />
            <Array as="points">
              <mxPoint x="1730" y="995" />
              <mxPoint x="1730" y="800" />
              <mxPoint x="1890" y="800" />
              <mxPoint x="1890" y="690" />
            </Array>
          </mxGeometry>
        </mxCell>
        <mxCell id="R4wL9bozNFMSgIH_ZImQ-41" value="AEC Consumer Registry Service" style="rounded=1;whiteSpace=wrap;html=1;fillColor=#dae8fc;strokeColor=#6c8ebf;" parent="1" vertex="1">
          <mxGeometry x="1155" y="960" width="120" height="70" as="geometry" />
        </mxCell>
        <mxCell id="R4wL9bozNFMSgIH_ZImQ-42" style="edgeStyle=orthogonalEdgeStyle;rounded=0;orthogonalLoop=1;jettySize=auto;html=1;exitX=0.5;exitY=1;exitDx=0;exitDy=0;" parent="1" source="R4wL9bozNFMSgIH_ZImQ-11" target="R4wL9bozNFMSgIH_ZImQ-11" edge="1">
          <mxGeometry relative="1" as="geometry" />
        </mxCell>
        <mxCell id="R4wL9bozNFMSgIH_ZImQ-43" value="" style="dashed=0;outlineConnect=0;html=1;align=center;labelPosition=center;verticalLabelPosition=bottom;verticalAlign=top;shape=mxgraph.webicons.mongodb;gradientColor=#DFDEDE" parent="1" vertex="1">
          <mxGeometry x="1855" y="613.3" width="70" height="76.7" as="geometry" />
        </mxCell>
        <mxCell id="R4wL9bozNFMSgIH_ZImQ-44" value="2. Return Registered Consumers Configs" style="text;html=1;align=center;verticalAlign=middle;whiteSpace=wrap;rounded=0;" parent="1" vertex="1">
          <mxGeometry x="1000" y="1010" width="130" height="30" as="geometry" />
        </mxCell>
        <mxCell id="R4wL9bozNFMSgIH_ZImQ-45" value="Caching Layer" style="text;html=1;align=center;verticalAlign=middle;whiteSpace=wrap;rounded=0;" parent="1" vertex="1">
          <mxGeometry x="1860" y="320" width="60" height="30" as="geometry" />
        </mxCell>
        <object placeholders="1" c4Name="AEC Studio Ecosystem" c4Type="SystemScopeBoundary" c4Application="BE" label="&lt;font style=&quot;font-size: 16px&quot;&gt;&lt;b&gt;&lt;div style=&quot;text-align: left&quot;&gt;%c4Name%&lt;/div&gt;&lt;/b&gt;&lt;/font&gt;&lt;div style=&quot;text-align: left&quot;&gt;[%c4Application%]&lt;/div&gt;" id="R4wL9bozNFMSgIH_ZImQ-46">
          <mxCell style="rounded=1;fontSize=11;whiteSpace=wrap;html=1;arcSize=20;fillColor=none;strokeColor=#666666;fontColor=#333333;labelBackgroundColor=none;align=left;verticalAlign=bottom;labelBorderColor=none;spacingTop=0;spacing=10;metaEdit=1;rotatable=0;perimeter=rectanglePerimeter;noLabel=0;labelPadding=0;allowArrows=0;connectable=0;expand=0;recursiveResize=0;editable=1;pointerEvents=0;absoluteArcSize=1;points=[[0.25,0,0],[0.5,0,0],[0.75,0,0],[1,0.25,0],[1,0.5,0],[1,0.75,0],[0.75,1,0],[0.5,1,0],[0.25,1,0],[0,0.75,0],[0,0.5,0],[0,0.25,0]];" parent="1" vertex="1">
            <mxGeometry x="510" y="230" width="1450" height="930" as="geometry" />
          </mxCell>
        </object>
        <mxCell id="R4wL9bozNFMSgIH_ZImQ-47" value="Client Layer" style="text;html=1;align=center;verticalAlign=middle;whiteSpace=wrap;rounded=0;" parent="1" vertex="1">
          <mxGeometry x="895" y="-30" width="100" height="30" as="geometry" />
        </mxCell>
        <mxCell id="R4wL9bozNFMSgIH_ZImQ-48" value="Schedule Cron" style="text;html=1;align=center;verticalAlign=middle;whiteSpace=wrap;rounded=0;" parent="1" vertex="1">
          <mxGeometry x="1080" y="720" width="110" height="30" as="geometry" />
        </mxCell>
        <mxCell id="R4wL9bozNFMSgIH_ZImQ-49" value="Trigger Scheduled External Config Update" style="text;html=1;align=center;verticalAlign=middle;whiteSpace=wrap;rounded=0;" parent="1" vertex="1">
          <mxGeometry x="1255" y="720" width="140" height="30" as="geometry" />
        </mxCell>
        <mxCell id="R4wL9bozNFMSgIH_ZImQ-50" value="Audit Config Publish Details and Versioning" style="text;html=1;align=center;verticalAlign=middle;whiteSpace=wrap;rounded=0;" parent="1" vertex="1">
          <mxGeometry x="1360" y="870" width="90" height="30" as="geometry" />
        </mxCell>
        <mxCell id="R4wL9bozNFMSgIH_ZImQ-51" value="" style="endArrow=classic;html=1;rounded=0;" parent="1" edge="1">
          <mxGeometry width="50" height="50" relative="1" as="geometry">
            <mxPoint x="900" y="1100" as="sourcePoint" />
            <mxPoint x="900" y="860" as="targetPoint" />
          </mxGeometry>
        </mxCell>
        <mxCell id="R4wL9bozNFMSgIH_ZImQ-52" value="" style="endArrow=none;html=1;rounded=0;" parent="1" edge="1">
          <mxGeometry width="50" height="50" relative="1" as="geometry">
            <mxPoint x="720" y="1100" as="sourcePoint" />
            <mxPoint x="1090" y="1100" as="targetPoint" />
            <Array as="points">
              <mxPoint x="870" y="1100" />
            </Array>
          </mxGeometry>
        </mxCell>
        <mxCell id="R4wL9bozNFMSgIH_ZImQ-53" style="edgeStyle=orthogonalEdgeStyle;rounded=0;orthogonalLoop=1;jettySize=auto;html=1;exitX=0.997;exitY=0.581;exitDx=0;exitDy=0;exitPerimeter=0;" parent="1" source="R4wL9bozNFMSgIH_ZImQ-57" edge="1">
          <mxGeometry relative="1" as="geometry">
            <mxPoint x="1210" y="1030" as="targetPoint" />
            <mxPoint x="1162" y="1350" as="sourcePoint" />
            <Array as="points">
              <mxPoint x="1211" y="1350" />
              <mxPoint x="1211" y="1030" />
            </Array>
          </mxGeometry>
        </mxCell>
        <mxCell id="R4wL9bozNFMSgIH_ZImQ-54" value="Store/Retrieve Audits" style="text;html=1;align=center;verticalAlign=middle;whiteSpace=wrap;rounded=0;" parent="1" vertex="1">
          <mxGeometry x="1640" y="600" width="60" height="30" as="geometry" />
        </mxCell>
        <mxCell id="R4wL9bozNFMSgIH_ZImQ-55" value="Store/Retrieve Webhook Configs" style="text;html=1;align=center;verticalAlign=middle;whiteSpace=wrap;rounded=0;" parent="1" vertex="1">
          <mxGeometry x="1640" y="950" width="60" height="30" as="geometry" />
        </mxCell>
        <mxCell id="R4wL9bozNFMSgIH_ZImQ-56" value="Retrieve User Roles" style="text;html=1;align=center;verticalAlign=middle;resizable=0;points=[];autosize=1;strokeColor=none;fillColor=none;" parent="1" vertex="1">
          <mxGeometry x="1485" y="350" width="130" height="30" as="geometry" />
        </mxCell>
        <mxCell id="R4wL9bozNFMSgIH_ZImQ-57" value="" style="rounded=0;whiteSpace=wrap;html=1;fillColor=#fff2cc;strokeColor=#d6b656;" parent="1" vertex="1">
          <mxGeometry x="660" y="1280" width="500" height="120" as="geometry" />
        </mxCell>
        <mxCell id="R4wL9bozNFMSgIH_ZImQ-58" value="SCX Consumer" style="rounded=1;whiteSpace=wrap;html=1;fillColor=#e1d5e7;strokeColor=#9673a6;" parent="1" vertex="1">
          <mxGeometry x="680" y="1310" width="80" height="50" as="geometry" />
        </mxCell>
        <mxCell id="R4wL9bozNFMSgIH_ZImQ-59" value="VI Consumer" style="rounded=1;whiteSpace=wrap;html=1;fillColor=#e1d5e7;strokeColor=#9673a6;fillOpacity=100;" parent="1" vertex="1">
          <mxGeometry x="803.5" y="1310" width="80" height="50" as="geometry" />
        </mxCell>
        <mxCell id="R4wL9bozNFMSgIH_ZImQ-60" value="OEM Portal Consumer" style="rounded=1;whiteSpace=wrap;html=1;fillColor=#e1d5e7;strokeColor=#9673a6;" parent="1" vertex="1">
          <mxGeometry x="925" y="1310" width="80" height="50" as="geometry" />
        </mxCell>
        <mxCell id="R4wL9bozNFMSgIH_ZImQ-61" value="APC Consumer" style="rounded=1;whiteSpace=wrap;html=1;fillColor=#e1d5e7;strokeColor=#9673a6;" parent="1" vertex="1">
          <mxGeometry x="1050" y="1310" width="80" height="50" as="geometry" />
        </mxCell>
        <mxCell id="R4wL9bozNFMSgIH_ZImQ-62" value="" style="endArrow=classic;html=1;rounded=0;entryX=0.5;entryY=0;entryDx=0;entryDy=0;" parent="1" target="R4wL9bozNFMSgIH_ZImQ-58" edge="1">
          <mxGeometry width="50" height="50" relative="1" as="geometry">
            <mxPoint x="720" y="1100" as="sourcePoint" />
            <mxPoint x="1150" y="1120" as="targetPoint" />
          </mxGeometry>
        </mxCell>
        <mxCell id="R4wL9bozNFMSgIH_ZImQ-63" value="" style="endArrow=classic;html=1;rounded=0;entryX=0.5;entryY=0;entryDx=0;entryDy=0;" parent="1" target="R4wL9bozNFMSgIH_ZImQ-59" edge="1">
          <mxGeometry width="50" height="50" relative="1" as="geometry">
            <mxPoint x="844" y="1100" as="sourcePoint" />
            <mxPoint x="1150" y="1120" as="targetPoint" />
          </mxGeometry>
        </mxCell>
        <mxCell id="R4wL9bozNFMSgIH_ZImQ-64" value="" style="endArrow=classic;html=1;rounded=0;" parent="1" target="R4wL9bozNFMSgIH_ZImQ-60" edge="1">
          <mxGeometry width="50" height="50" relative="1" as="geometry">
            <mxPoint x="965" y="1100" as="sourcePoint" />
            <mxPoint x="1150" y="1120" as="targetPoint" />
          </mxGeometry>
        </mxCell>
        <mxCell id="R4wL9bozNFMSgIH_ZImQ-65" value="" style="endArrow=classic;html=1;rounded=0;entryX=0.5;entryY=0;entryDx=0;entryDy=0;" parent="1" target="R4wL9bozNFMSgIH_ZImQ-61" edge="1">
          <mxGeometry width="50" height="50" relative="1" as="geometry">
            <mxPoint x="1090" y="1100" as="sourcePoint" />
            <mxPoint x="1150" y="1120" as="targetPoint" />
          </mxGeometry>
        </mxCell>
        <mxCell id="R4wL9bozNFMSgIH_ZImQ-66" value="External Consumers" style="text;html=1;align=center;verticalAlign=middle;whiteSpace=wrap;rounded=0;" parent="1" vertex="1">
          <mxGeometry x="880" y="1360" width="60" height="30" as="geometry" />
        </mxCell>
        <mxCell id="R4wL9bozNFMSgIH_ZImQ-67" value="External Config Update" style="text;html=1;align=center;verticalAlign=middle;whiteSpace=wrap;rounded=0;" parent="1" vertex="1">
          <mxGeometry x="1110" y="540" width="95" height="30" as="geometry" />
        </mxCell>
        <mxCell id="R4wL9bozNFMSgIH_ZImQ-68" value="" style="endArrow=none;html=1;rounded=0;exitX=1;exitY=0.5;exitDx=0;exitDy=0;" parent="1" source="R4wL9bozNFMSgIH_ZImQ-1" edge="1">
          <mxGeometry width="50" height="50" relative="1" as="geometry">
            <mxPoint x="1230" y="870" as="sourcePoint" />
            <mxPoint x="1770" y="350" as="targetPoint" />
          </mxGeometry>
        </mxCell>
        <mxCell id="R4wL9bozNFMSgIH_ZImQ-69" value="" style="endArrow=none;html=1;rounded=0;" parent="1" edge="1">
          <mxGeometry width="50" height="50" relative="1" as="geometry">
            <mxPoint x="1770" y="350" as="sourcePoint" />
            <mxPoint x="1770" y="480" as="targetPoint" />
          </mxGeometry>
        </mxCell>
        <mxCell id="R4wL9bozNFMSgIH_ZImQ-70" value="" style="endArrow=classic;html=1;rounded=0;" parent="1" edge="1">
          <mxGeometry width="50" height="50" relative="1" as="geometry">
            <mxPoint x="1770" y="400" as="sourcePoint" />
            <mxPoint x="1855" y="400" as="targetPoint" />
          </mxGeometry>
        </mxCell>
        <mxCell id="R4wL9bozNFMSgIH_ZImQ-71" value="" style="endArrow=classic;html=1;rounded=0;" parent="1" edge="1">
          <mxGeometry width="50" height="50" relative="1" as="geometry">
            <mxPoint x="1770" y="480" as="sourcePoint" />
            <mxPoint x="1890" y="610" as="targetPoint" />
            <Array as="points">
              <mxPoint x="1890" y="480" />
            </Array>
          </mxGeometry>
        </mxCell>
        <mxCell id="R6cSBWT4vYsl6B0eMvr9-2" value="AEC Studio UI" style="rounded=1;whiteSpace=wrap;html=1;fillColor=#d5e8d4;strokeColor=#82b366;" parent="1" vertex="1">
          <mxGeometry x="-940.5" y="60" width="120" height="70" as="geometry" />
        </mxCell>
        <mxCell id="R6cSBWT4vYsl6B0eMvr9-3" value="Portal Applications&lt;div&gt;OEM, DR&lt;/div&gt;" style="rounded=1;whiteSpace=wrap;html=1;fillColor=#d5e8d4;strokeColor=#82b366;" parent="1" vertex="1">
          <mxGeometry x="-620.5" y="60" width="120" height="70" as="geometry" />
        </mxCell>
        <mxCell id="R6cSBWT4vYsl6B0eMvr9-4" value="APC" style="rounded=1;whiteSpace=wrap;html=1;fillColor=#d5e8d4;strokeColor=#82b366;" parent="1" vertex="1">
          <mxGeometry x="-780.5" y="60" width="120" height="70" as="geometry" />
        </mxCell>
        <mxCell id="R6cSBWT4vYsl6B0eMvr9-26" value="Client Layer" style="text;html=1;align=center;verticalAlign=middle;whiteSpace=wrap;rounded=0;" parent="1" vertex="1">
          <mxGeometry x="-770.5" width="100" height="30" as="geometry" />
        </mxCell>
        <object placeholders="1" c4Name="AEC Checkout Ecosystem" c4Type="SystemScopeBoundary" c4Application="FE + BE" label="&lt;font style=&quot;font-size: 16px&quot;&gt;&lt;b&gt;&lt;div style=&quot;text-align: left&quot;&gt;%c4Name%&lt;/div&gt;&lt;/b&gt;&lt;/font&gt;&lt;div style=&quot;text-align: left&quot;&gt;[%c4Application%]&lt;/div&gt;" id="R6cSBWT4vYsl6B0eMvr9-32">
          <mxCell style="rounded=1;fontSize=11;whiteSpace=wrap;html=1;arcSize=20;fillColor=none;strokeColor=#666666;fontColor=#333333;labelBackgroundColor=none;align=left;verticalAlign=bottom;labelBorderColor=none;spacingTop=0;spacing=10;metaEdit=1;rotatable=0;perimeter=rectanglePerimeter;noLabel=0;labelPadding=0;allowArrows=0;connectable=0;expand=0;recursiveResize=0;editable=1;pointerEvents=0;absoluteArcSize=1;points=[[0.25,0,0],[0.5,0,0],[0.75,0,0],[1,0.25,0],[1,0.5,0],[1,0.75,0],[0.75,1,0],[0.5,1,0],[0.25,1,0],[0,0.75,0],[0,0.5,0],[0,0.25,0]];" parent="1" vertex="1">
            <mxGeometry x="-1440" y="1550" width="1440" height="470" as="geometry" />
          </mxCell>
        </object>
        <mxCell id="R6cSBWT4vYsl6B0eMvr9-35" value="" style="edgeStyle=orthogonalEdgeStyle;rounded=0;orthogonalLoop=1;jettySize=auto;html=1;" parent="1" source="R6cSBWT4vYsl6B0eMvr9-33" target="R6cSBWT4vYsl6B0eMvr9-34" edge="1">
          <mxGeometry relative="1" as="geometry" />
        </mxCell>
        <mxCell id="R6cSBWT4vYsl6B0eMvr9-33" value="Components" style="rounded=1;whiteSpace=wrap;html=1;fillColor=#dae8fc;strokeColor=#6c8ebf;" parent="1" vertex="1">
          <mxGeometry x="-1340" y="1800" width="120" height="70" as="geometry" />
        </mxCell>
        <mxCell id="R6cSBWT4vYsl6B0eMvr9-37" value="" style="edgeStyle=orthogonalEdgeStyle;rounded=0;orthogonalLoop=1;jettySize=auto;html=1;" parent="1" source="R6cSBWT4vYsl6B0eMvr9-34" target="R6cSBWT4vYsl6B0eMvr9-36" edge="1">
          <mxGeometry relative="1" as="geometry">
            <Array as="points">
              <mxPoint x="-1040" y="1645" />
            </Array>
          </mxGeometry>
        </mxCell>
        <mxCell id="R6cSBWT4vYsl6B0eMvr9-34" value="Studio Configs" style="rounded=1;whiteSpace=wrap;html=1;fillColor=#dae8fc;strokeColor=#6c8ebf;" parent="1" vertex="1">
          <mxGeometry x="-1100" y="1800" width="120" height="70" as="geometry" />
        </mxCell>
        <mxCell id="i2BVjJreL_Xb-3278pKQ-61" style="edgeStyle=orthogonalEdgeStyle;rounded=0;orthogonalLoop=1;jettySize=auto;html=1;entryX=0;entryY=0.5;entryDx=0;entryDy=0;" edge="1" parent="1" source="R6cSBWT4vYsl6B0eMvr9-36" target="i2BVjJreL_Xb-3278pKQ-30">
          <mxGeometry relative="1" as="geometry">
            <Array as="points">
              <mxPoint x="-1480" y="1645" />
              <mxPoint x="-1480" y="360" />
            </Array>
          </mxGeometry>
        </mxCell>
        <mxCell id="R6cSBWT4vYsl6B0eMvr9-36" value="Build &amp;amp; Deployment Pipeline" style="rounded=1;whiteSpace=wrap;html=1;fillColor=#dae8fc;strokeColor=#6c8ebf;" parent="1" vertex="1">
          <mxGeometry x="-1230" y="1610" width="120" height="70" as="geometry" />
        </mxCell>
        <mxCell id="R6cSBWT4vYsl6B0eMvr9-41" value="Codebase (GITLAB)" style="text;html=1;align=center;verticalAlign=middle;whiteSpace=wrap;rounded=0;" parent="1" vertex="1">
          <mxGeometry x="-1230" y="1740" width="140" height="30" as="geometry" />
        </mxCell>
        <mxCell id="i2BVjJreL_Xb-3278pKQ-68" style="edgeStyle=orthogonalEdgeStyle;rounded=0;orthogonalLoop=1;jettySize=auto;html=1;entryX=0.5;entryY=0;entryDx=0;entryDy=0;" edge="1" parent="1" source="i2BVjJreL_Xb-3278pKQ-24" target="i2BVjJreL_Xb-3278pKQ-64">
          <mxGeometry relative="1" as="geometry">
            <Array as="points">
              <mxPoint x="-560" y="760" />
              <mxPoint x="-820" y="760" />
            </Array>
          </mxGeometry>
        </mxCell>
        <mxCell id="i2BVjJreL_Xb-3278pKQ-24" value="" style="rounded=1;whiteSpace=wrap;html=1;fillColor=none;dashed=1;" vertex="1" parent="1">
          <mxGeometry x="-1020" y="560" width="960" height="160" as="geometry" />
        </mxCell>
        <mxCell id="i2BVjJreL_Xb-3278pKQ-25" value="" style="rounded=1;whiteSpace=wrap;html=1;fillColor=none;dashed=1;" vertex="1" parent="1">
          <mxGeometry x="-1020" y="280" width="240" height="160" as="geometry" />
        </mxCell>
        <mxCell id="i2BVjJreL_Xb-3278pKQ-26" value="" style="rounded=1;whiteSpace=wrap;html=1;fillColor=none;dashed=1;" vertex="1" parent="1">
          <mxGeometry x="-1380" y="280" width="240" height="280" as="geometry" />
        </mxCell>
        <object placeholders="1" c4Name="AEC Studio Ecosystem" c4Type="SystemScopeBoundary" c4Application="FE" label="&lt;font style=&quot;font-size: 16px&quot;&gt;&lt;b&gt;&lt;div style=&quot;text-align: left&quot;&gt;%c4Name%&lt;/div&gt;&lt;/b&gt;&lt;/font&gt;&lt;div style=&quot;text-align: left&quot;&gt;[%c4Application%]&lt;/div&gt;" id="i2BVjJreL_Xb-3278pKQ-27">
          <mxCell style="rounded=1;fontSize=11;whiteSpace=wrap;html=1;arcSize=20;fillColor=none;strokeColor=#666666;fontColor=#333333;labelBackgroundColor=none;align=left;verticalAlign=bottom;labelBorderColor=none;spacingTop=0;spacing=10;metaEdit=1;rotatable=0;perimeter=rectanglePerimeter;noLabel=0;labelPadding=0;allowArrows=0;connectable=0;expand=0;recursiveResize=0;editable=1;pointerEvents=0;absoluteArcSize=1;points=[[0.25,0,0],[0.5,0,0],[0.75,0,0],[1,0.25,0],[1,0.5,0],[1,0.75,0],[0.75,1,0],[0.5,1,0],[0.25,1,0],[0,0.75,0],[0,0.5,0],[0,0.25,0]];" vertex="1" parent="1">
            <mxGeometry x="-1440" y="239" width="1440" height="930" as="geometry" />
          </mxCell>
        </object>
        <mxCell id="i2BVjJreL_Xb-3278pKQ-28" style="edgeStyle=orthogonalEdgeStyle;rounded=0;orthogonalLoop=1;jettySize=auto;html=1;entryX=0;entryY=0.5;entryDx=0;entryDy=0;" edge="1" parent="1" source="i2BVjJreL_Xb-3278pKQ-30" target="i2BVjJreL_Xb-3278pKQ-32">
          <mxGeometry relative="1" as="geometry" />
        </mxCell>
        <mxCell id="i2BVjJreL_Xb-3278pKQ-29" style="edgeStyle=orthogonalEdgeStyle;rounded=0;orthogonalLoop=1;jettySize=auto;html=1;entryX=0.5;entryY=0;entryDx=0;entryDy=0;" edge="1" parent="1" source="i2BVjJreL_Xb-3278pKQ-30" target="i2BVjJreL_Xb-3278pKQ-31">
          <mxGeometry relative="1" as="geometry" />
        </mxCell>
        <mxCell id="i2BVjJreL_Xb-3278pKQ-30" value="AEC Studio&lt;br&gt;Code &amp;amp; Config&lt;br&gt;Sync Pipeline" style="rounded=1;whiteSpace=wrap;html=1;fillColor=#dae8fc;strokeColor=#6c8ebf;" vertex="1" parent="1">
          <mxGeometry x="-1320" y="325" width="120" height="70" as="geometry" />
        </mxCell>
        <mxCell id="i2BVjJreL_Xb-3278pKQ-31" value="AEC Studio&lt;br&gt;Template/Page Customisation &amp;amp; Preview (MF)" style="rounded=1;whiteSpace=wrap;html=1;fillColor=#dae8fc;strokeColor=#6c8ebf;" vertex="1" parent="1">
          <mxGeometry x="-1320" y="445" width="120" height="70" as="geometry" />
        </mxCell>
        <mxCell id="i2BVjJreL_Xb-3278pKQ-32" value="AEC Studio&lt;br&gt;Portal Service" style="rounded=1;whiteSpace=wrap;html=1;fillColor=#dae8fc;strokeColor=#6c8ebf;" vertex="1" parent="1">
          <mxGeometry x="-960" y="325" width="120" height="70" as="geometry" />
        </mxCell>
        <mxCell id="i2BVjJreL_Xb-3278pKQ-84" style="edgeStyle=orthogonalEdgeStyle;rounded=0;orthogonalLoop=1;jettySize=auto;html=1;" edge="1" parent="1" source="i2BVjJreL_Xb-3278pKQ-33" target="i2BVjJreL_Xb-3278pKQ-71">
          <mxGeometry relative="1" as="geometry">
            <Array as="points">
              <mxPoint x="-180" y="1200" />
              <mxPoint x="-1310" y="1200" />
            </Array>
          </mxGeometry>
        </mxCell>
        <mxCell id="i2BVjJreL_Xb-3278pKQ-94" style="edgeStyle=orthogonalEdgeStyle;rounded=0;orthogonalLoop=1;jettySize=auto;html=1;" edge="1" parent="1" source="i2BVjJreL_Xb-3278pKQ-33" target="i2BVjJreL_Xb-3278pKQ-50">
          <mxGeometry relative="1" as="geometry" />
        </mxCell>
        <mxCell id="i2BVjJreL_Xb-3278pKQ-33" value="AEC Template/File Storage Service" style="rounded=1;whiteSpace=wrap;html=1;fillColor=#dae8fc;strokeColor=#6c8ebf;" vertex="1" parent="1">
          <mxGeometry x="-240" y="885" width="120" height="70" as="geometry" />
        </mxCell>
        <mxCell id="i2BVjJreL_Xb-3278pKQ-34" value="AEC Studio&lt;br&gt;Template Builder Service" style="rounded=1;whiteSpace=wrap;html=1;fillColor=#dae8fc;strokeColor=#6c8ebf;" vertex="1" parent="1">
          <mxGeometry x="-760" y="600" width="120" height="70" as="geometry" />
        </mxCell>
        <mxCell id="i2BVjJreL_Xb-3278pKQ-35" value="AEC Studio&lt;br&gt;Theming Service" style="rounded=1;whiteSpace=wrap;html=1;fillColor=#dae8fc;strokeColor=#6c8ebf;" vertex="1" parent="1">
          <mxGeometry x="-960" y="600" width="120" height="70" as="geometry" />
        </mxCell>
        <mxCell id="i2BVjJreL_Xb-3278pKQ-36" value="AEC Studio&lt;br&gt;Assets Service" style="rounded=1;whiteSpace=wrap;html=1;fillColor=#dae8fc;strokeColor=#6c8ebf;" vertex="1" parent="1">
          <mxGeometry x="-560" y="600" width="120" height="70" as="geometry" />
        </mxCell>
        <mxCell id="i2BVjJreL_Xb-3278pKQ-37" value="AEC Studio&lt;br&gt;Localisation Service" style="rounded=1;whiteSpace=wrap;html=1;fillColor=#dae8fc;strokeColor=#6c8ebf;" vertex="1" parent="1">
          <mxGeometry x="-360" y="600" width="120" height="70" as="geometry" />
        </mxCell>
        <mxCell id="i2BVjJreL_Xb-3278pKQ-59" style="edgeStyle=orthogonalEdgeStyle;rounded=0;orthogonalLoop=1;jettySize=auto;html=1;entryX=1;entryY=0.5;entryDx=0;entryDy=0;" edge="1" parent="1" source="i2BVjJreL_Xb-3278pKQ-41" target="i2BVjJreL_Xb-3278pKQ-32">
          <mxGeometry relative="1" as="geometry" />
        </mxCell>
        <mxCell id="i2BVjJreL_Xb-3278pKQ-87" value="Config Driven UI" style="edgeLabel;html=1;align=center;verticalAlign=middle;resizable=0;points=[];" vertex="1" connectable="0" parent="i2BVjJreL_Xb-3278pKQ-59">
          <mxGeometry x="-0.0196" relative="1" as="geometry">
            <mxPoint x="-2" y="-10" as="offset" />
          </mxGeometry>
        </mxCell>
        <mxCell id="i2BVjJreL_Xb-3278pKQ-85" style="edgeStyle=orthogonalEdgeStyle;rounded=0;orthogonalLoop=1;jettySize=auto;html=1;entryX=1;entryY=0.5;entryDx=0;entryDy=0;" edge="1" parent="1" source="i2BVjJreL_Xb-3278pKQ-41" target="i2BVjJreL_Xb-3278pKQ-31">
          <mxGeometry relative="1" as="geometry">
            <Array as="points">
              <mxPoint x="-540" y="480" />
            </Array>
          </mxGeometry>
        </mxCell>
        <mxCell id="i2BVjJreL_Xb-3278pKQ-86" value="Template Preview System" style="edgeLabel;html=1;align=center;verticalAlign=middle;resizable=0;points=[];" vertex="1" connectable="0" parent="i2BVjJreL_Xb-3278pKQ-85">
          <mxGeometry x="0.053" y="4" relative="1" as="geometry">
            <mxPoint x="237" y="-14" as="offset" />
          </mxGeometry>
        </mxCell>
        <mxCell id="i2BVjJreL_Xb-3278pKQ-90" style="edgeStyle=orthogonalEdgeStyle;rounded=0;orthogonalLoop=1;jettySize=auto;html=1;entryX=0.5;entryY=0;entryDx=0;entryDy=0;" edge="1" parent="1" source="i2BVjJreL_Xb-3278pKQ-41" target="i2BVjJreL_Xb-3278pKQ-88">
          <mxGeometry relative="1" as="geometry">
            <Array as="points">
              <mxPoint x="-540" y="200" />
              <mxPoint x="130" y="200" />
            </Array>
          </mxGeometry>
        </mxCell>
        <mxCell id="i2BVjJreL_Xb-3278pKQ-95" value="Save &amp;amp; Publish" style="edgeLabel;html=1;align=center;verticalAlign=middle;resizable=0;points=[];" vertex="1" connectable="0" parent="i2BVjJreL_Xb-3278pKQ-90">
          <mxGeometry x="0.4022" y="5" relative="1" as="geometry">
            <mxPoint x="109" y="-15" as="offset" />
          </mxGeometry>
        </mxCell>
        <mxCell id="i2BVjJreL_Xb-3278pKQ-41" value="AEC Studio&lt;br&gt;FE Service" style="rounded=1;whiteSpace=wrap;html=1;fillColor=#dae8fc;strokeColor=#6c8ebf;" vertex="1" parent="1">
          <mxGeometry x="-600" y="325" width="120" height="70" as="geometry" />
        </mxCell>
        <mxCell id="i2BVjJreL_Xb-3278pKQ-50" value="" style="dashed=0;outlineConnect=0;html=1;align=center;labelPosition=center;verticalLabelPosition=bottom;verticalAlign=top;shape=mxgraph.webicons.mongodb;gradientColor=#DFDEDE" vertex="1" parent="1">
          <mxGeometry x="-488" y="881.65" width="70" height="76.7" as="geometry" />
        </mxCell>
        <mxCell id="i2BVjJreL_Xb-3278pKQ-58" style="edgeStyle=orthogonalEdgeStyle;rounded=0;orthogonalLoop=1;jettySize=auto;html=1;entryX=0.5;entryY=0;entryDx=0;entryDy=0;" edge="1" parent="1" source="i2BVjJreL_Xb-3278pKQ-52" target="i2BVjJreL_Xb-3278pKQ-24">
          <mxGeometry relative="1" as="geometry">
            <Array as="points">
              <mxPoint x="-180" y="520" />
              <mxPoint x="-540" y="520" />
            </Array>
          </mxGeometry>
        </mxCell>
        <mxCell id="i2BVjJreL_Xb-3278pKQ-52" value="AEC Studio&lt;br&gt;Node Gateway" style="rounded=1;whiteSpace=wrap;html=1;fillColor=#dae8fc;strokeColor=#6c8ebf;" vertex="1" parent="1">
          <mxGeometry x="-240" y="325" width="120" height="70" as="geometry" />
        </mxCell>
        <mxCell id="i2BVjJreL_Xb-3278pKQ-60" style="edgeStyle=orthogonalEdgeStyle;rounded=0;orthogonalLoop=1;jettySize=auto;html=1;entryX=0.25;entryY=0.5;entryDx=0;entryDy=0;entryPerimeter=0;" edge="1" parent="1" source="i2BVjJreL_Xb-3278pKQ-41" target="i2BVjJreL_Xb-3278pKQ-51">
          <mxGeometry relative="1" as="geometry" />
        </mxCell>
        <mxCell id="i2BVjJreL_Xb-3278pKQ-67" style="edgeStyle=orthogonalEdgeStyle;rounded=0;orthogonalLoop=1;jettySize=auto;html=1;" edge="1" parent="1" source="i2BVjJreL_Xb-3278pKQ-64" target="i2BVjJreL_Xb-3278pKQ-50">
          <mxGeometry relative="1" as="geometry" />
        </mxCell>
        <mxCell id="i2BVjJreL_Xb-3278pKQ-64" value="" style="rounded=1;whiteSpace=wrap;html=1;fillColor=none;dashed=1;" vertex="1" parent="1">
          <mxGeometry x="-1020" y="840" width="400" height="160" as="geometry" />
        </mxCell>
        <mxCell id="i2BVjJreL_Xb-3278pKQ-65" value="AEC Audit&lt;br&gt;Service" style="rounded=1;whiteSpace=wrap;html=1;fillColor=#dae8fc;strokeColor=#6c8ebf;" vertex="1" parent="1">
          <mxGeometry x="-960" y="885" width="120" height="70" as="geometry" />
        </mxCell>
        <mxCell id="i2BVjJreL_Xb-3278pKQ-66" value="AEC Versioning&lt;br&gt;Service" style="rounded=1;whiteSpace=wrap;html=1;fillColor=#dae8fc;strokeColor=#6c8ebf;" vertex="1" parent="1">
          <mxGeometry x="-799.5" y="885" width="120" height="70" as="geometry" />
        </mxCell>
        <mxCell id="i2BVjJreL_Xb-3278pKQ-74" value="" style="edgeStyle=orthogonalEdgeStyle;rounded=0;orthogonalLoop=1;jettySize=auto;html=1;" edge="1" parent="1" source="i2BVjJreL_Xb-3278pKQ-71" target="i2BVjJreL_Xb-3278pKQ-73">
          <mxGeometry relative="1" as="geometry" />
        </mxCell>
        <mxCell id="i2BVjJreL_Xb-3278pKQ-71" value="Azure&lt;br&gt;Blob Storage" style="rounded=1;whiteSpace=wrap;html=1;fillColor=#dae8fc;strokeColor=#6c8ebf;" vertex="1" parent="1">
          <mxGeometry x="-1370" y="1310" width="120" height="70" as="geometry" />
        </mxCell>
        <object placeholders="1" c4Name="AEC Infra Ecosystem" c4Type="SystemScopeBoundary" c4Application="INFRA" label="&lt;font style=&quot;font-size: 16px&quot;&gt;&lt;b&gt;&lt;div style=&quot;text-align: left&quot;&gt;%c4Name%&lt;/div&gt;&lt;/b&gt;&lt;/font&gt;&lt;div style=&quot;text-align: left&quot;&gt;[%c4Application%]&lt;/div&gt;" id="i2BVjJreL_Xb-3278pKQ-72">
          <mxCell style="rounded=1;fontSize=11;whiteSpace=wrap;html=1;arcSize=20;fillColor=none;strokeColor=#666666;fontColor=#333333;labelBackgroundColor=none;align=left;verticalAlign=bottom;labelBorderColor=none;spacingTop=0;spacing=10;metaEdit=1;rotatable=0;perimeter=rectanglePerimeter;noLabel=0;labelPadding=0;allowArrows=0;connectable=0;expand=0;recursiveResize=0;editable=1;pointerEvents=0;absoluteArcSize=1;points=[[0.25,0,0],[0.5,0,0],[0.75,0,0],[1,0.25,0],[1,0.5,0],[1,0.75,0],[0.75,1,0],[0.5,1,0],[0.25,1,0],[0,0.75,0],[0,0.5,0],[0,0.25,0]];" vertex="1" parent="1">
            <mxGeometry x="-1440" y="1230" width="1440" height="260" as="geometry" />
          </mxCell>
        </object>
        <mxCell id="i2BVjJreL_Xb-3278pKQ-73" value="CDN" style="rounded=1;whiteSpace=wrap;html=1;fillColor=#dae8fc;strokeColor=#6c8ebf;" vertex="1" parent="1">
          <mxGeometry x="-1170" y="1310" width="120" height="70" as="geometry" />
        </mxCell>
        <mxCell id="i2BVjJreL_Xb-3278pKQ-76" value="" style="rounded=1;whiteSpace=wrap;html=1;fillColor=none;dashed=1;" vertex="1" parent="1">
          <mxGeometry x="-280" y="1770" width="200" height="130" as="geometry" />
        </mxCell>
        <mxCell id="i2BVjJreL_Xb-3278pKQ-77" value="AEC Checkout&lt;br&gt;BE Service" style="rounded=1;whiteSpace=wrap;html=1;fillColor=#dae8fc;strokeColor=#6c8ebf;" vertex="1" parent="1">
          <mxGeometry x="-240" y="1800" width="120" height="70" as="geometry" />
        </mxCell>
        <mxCell id="i2BVjJreL_Xb-3278pKQ-78" value="" style="rounded=1;whiteSpace=wrap;html=1;fillColor=none;dashed=1;" vertex="1" parent="1">
          <mxGeometry x="-560" y="1770" width="200" height="130" as="geometry" />
        </mxCell>
        <mxCell id="i2BVjJreL_Xb-3278pKQ-80" style="edgeStyle=orthogonalEdgeStyle;rounded=0;orthogonalLoop=1;jettySize=auto;html=1;entryX=0.5;entryY=0;entryDx=0;entryDy=0;" edge="1" parent="1" source="i2BVjJreL_Xb-3278pKQ-79" target="i2BVjJreL_Xb-3278pKQ-77">
          <mxGeometry relative="1" as="geometry">
            <Array as="points">
              <mxPoint x="-480" y="1720" />
              <mxPoint x="-180" y="1720" />
            </Array>
          </mxGeometry>
        </mxCell>
        <mxCell id="i2BVjJreL_Xb-3278pKQ-82" value="Program + Version Resolver" style="edgeLabel;html=1;align=center;verticalAlign=middle;resizable=0;points=[];" vertex="1" connectable="0" parent="i2BVjJreL_Xb-3278pKQ-80">
          <mxGeometry x="0.2601" y="-3" relative="1" as="geometry">
            <mxPoint x="-40" y="-23" as="offset" />
          </mxGeometry>
        </mxCell>
        <mxCell id="i2BVjJreL_Xb-3278pKQ-81" style="edgeStyle=orthogonalEdgeStyle;rounded=0;orthogonalLoop=1;jettySize=auto;html=1;entryX=1;entryY=0.5;entryDx=0;entryDy=0;" edge="1" parent="1" source="i2BVjJreL_Xb-3278pKQ-79" target="i2BVjJreL_Xb-3278pKQ-73">
          <mxGeometry relative="1" as="geometry">
            <Array as="points">
              <mxPoint x="-430" y="1345" />
            </Array>
          </mxGeometry>
        </mxCell>
        <mxCell id="i2BVjJreL_Xb-3278pKQ-83" value="Fetch&lt;br&gt;Theming Assets&lt;br&gt;Builder Metadata Assets" style="edgeLabel;html=1;align=center;verticalAlign=middle;resizable=0;points=[];" vertex="1" connectable="0" parent="i2BVjJreL_Xb-3278pKQ-81">
          <mxGeometry x="-0.6331" relative="1" as="geometry">
            <mxPoint x="70" y="-83" as="offset" />
          </mxGeometry>
        </mxCell>
        <mxCell id="i2BVjJreL_Xb-3278pKQ-79" value="AEC Checkout&lt;br&gt;FE Service" style="rounded=1;whiteSpace=wrap;html=1;fillColor=#dae8fc;strokeColor=#6c8ebf;" vertex="1" parent="1">
          <mxGeometry x="-520" y="1800" width="120" height="70" as="geometry" />
        </mxCell>
        <mxCell id="i2BVjJreL_Xb-3278pKQ-91" style="edgeStyle=orthogonalEdgeStyle;rounded=0;orthogonalLoop=1;jettySize=auto;html=1;entryX=0.5;entryY=0;entryDx=0;entryDy=0;" edge="1" parent="1" source="i2BVjJreL_Xb-3278pKQ-88" target="i2BVjJreL_Xb-3278pKQ-89">
          <mxGeometry relative="1" as="geometry" />
        </mxCell>
        <mxCell id="i2BVjJreL_Xb-3278pKQ-92" value="&lt;span style=&quot;font-size: 12px; text-wrap-mode: wrap; background-color: rgb(251, 251, 251);&quot;&gt;Consumption Acknowledgment via Webhook&lt;/span&gt;" style="edgeLabel;html=1;align=center;verticalAlign=middle;resizable=0;points=[];" vertex="1" connectable="0" parent="i2BVjJreL_Xb-3278pKQ-91">
          <mxGeometry x="-0.02" y="4" relative="1" as="geometry">
            <mxPoint x="56" y="-1" as="offset" />
          </mxGeometry>
        </mxCell>
        <mxCell id="i2BVjJreL_Xb-3278pKQ-88" value="AEC Studio&lt;br&gt;BE Service" style="rounded=1;whiteSpace=wrap;html=1;fillColor=#dae8fc;strokeColor=#6c8ebf;" vertex="1" parent="1">
          <mxGeometry x="70" y="325" width="120" height="70" as="geometry" />
        </mxCell>
        <mxCell id="i2BVjJreL_Xb-3278pKQ-93" style="edgeStyle=orthogonalEdgeStyle;rounded=0;orthogonalLoop=1;jettySize=auto;html=1;entryX=1;entryY=0.5;entryDx=0;entryDy=0;" edge="1" parent="1" source="i2BVjJreL_Xb-3278pKQ-89" target="i2BVjJreL_Xb-3278pKQ-33">
          <mxGeometry relative="1" as="geometry" />
        </mxCell>
        <mxCell id="i2BVjJreL_Xb-3278pKQ-89" value="SCX Consumer" style="rounded=1;whiteSpace=wrap;html=1;fillColor=#e1d5e7;strokeColor=#9673a6;" vertex="1" parent="1">
          <mxGeometry x="90" y="895" width="80" height="50" as="geometry" />
        </mxCell>
      </root>
    </mxGraphModel>
  </diagram>
</mxfile>
